<?xml version="1.0" encoding="UTF-8"?>
<!-- Generator: visioncortex VTracer 0.6.4 -->
<svg version="1.1" xmlns="http://www.w3.org/2000/svg" width="1024" height="1024">
<path d="M0 0 C337.92 0 675.84 0 1024 0 C1024 337.92 1024 675.84 1024 1024 C686.08 1024 348.16 1024 0 1024 C0 686.08 0 348.16 0 0 Z " fill="#FCFDFD" transform="translate(0,0)"/>
<path d="M0 0 C2.88 1.31 2.88 1.31 5 4 C6.51 13.68 3.68 24.17 2 33.69 C1.71 35.37 1.42 37.06 1.13 38.74 C0.43 42.83 -0.28 46.91 -1 51 C-0.17 51.12 0.66 51.23 1.51 51.35 C35.36 56.27 67.53 72.9 88.85 100.07 C110.34 129.37 121.31 163.84 115.97 200.27 C111.95 224.15 100.31 247.55 80.5 262.12 C72.89 267.53 64.53 271.3 56 275 C55.78 277.06 55.78 277.06 57.22 278.37 C58.07 279.15 58.07 279.15 58.93 279.95 C76.42 296.52 86.67 314.49 92 338 C92.17 338.74 92.35 339.48 92.53 340.25 C95.69 358.63 94.38 379.9 87 397 C86.74 397.65 86.48 398.3 86.21 398.96 C77.97 419.06 62.26 431.14 43 440 C43.72 440.71 44.43 441.43 45.17 442.16 C67.78 464.81 80.24 490.44 80.32 522.93 C79.99 546.15 71.47 568.51 55 585 C54.31 585.7 53.63 586.4 52.92 587.12 C34.73 604.46 8.55 611.24 -15.97 611.1 C-16.89 611.1 -17.81 611.09 -18.76 611.09 C-21.67 611.09 -24.59 611.08 -27.5 611.06 C-29.49 611.06 -31.47 611.05 -33.46 611.05 C-38.31 611.04 -43.15 611.02 -48 611 C-48.08 611.57 -48.16 612.13 -48.24 612.71 C-48.72 616.06 -49.2 619.41 -49.69 622.76 C-50.5 628.32 -51.24 633.88 -51.91 639.45 C-52.07 640.71 -52.23 641.96 -52.4 643.25 C-52.71 645.72 -53.01 648.19 -53.29 650.67 C-54.54 660.2 -54.54 660.2 -57.35 663.28 C-61.32 665.85 -64.43 665.95 -69 665 C-71.5 663.12 -72.62 661.76 -74 659 C-73.94 647.62 -71.77 636.32 -69.94 625.12 C-69.65 623.36 -69.37 621.59 -69.08 619.82 C-68.4 615.55 -67.7 611.27 -67 607 C-67.71 607.01 -68.41 607.03 -69.14 607.04 C-77.73 607.14 -85.66 605.87 -94 604 C-94.75 603.83 -95.51 603.67 -96.28 603.5 C-118.03 598.58 -136.93 589.79 -153 574 C-153.63 573.39 -154.25 572.78 -154.89 572.14 C-171.29 554.79 -175.72 531.13 -175.3 508.08 C-174.55 488.24 -166.82 469.18 -154 454 C-153.18 453.02 -152.36 452.04 -151.51 451.02 C-143.98 442.29 -135.17 434.55 -125 429 C-124.34 429 -123.68 429 -123 429 C-123 428.34 -123 427.68 -123 427 C-124.08 426.61 -124.08 426.61 -125.17 426.22 C-140.56 419.59 -150.6 405.1 -157.25 390.31 C-166.14 366.24 -163.45 338.06 -153 315 C-142.74 293.41 -126.81 275.78 -106 264 C-105.34 264 -104.68 264 -104 264 C-104 263.34 -104 262.68 -104 262 C-104.57 261.89 -105.13 261.77 -105.71 261.66 C-122.08 256.96 -135.2 240.71 -143.18 226.55 C-146.87 219.68 -149.71 212.44 -152 205 C-152.27 204.14 -152.54 203.27 -152.82 202.39 C-155.18 194.05 -155.52 186 -155.44 177.38 C-155.43 176.67 -155.43 175.97 -155.43 175.24 C-155.36 164.12 -154.6 153.59 -151 143 C-150.78 142.35 -150.56 141.71 -150.33 141.04 C-148.77 136.59 -146.94 132.3 -145 128 C-144.49 126.84 -143.97 125.68 -143.45 124.48 C-128.89 93.42 -100.44 69.2 -68.51 57.27 C-55.5 52.65 -42.81 49.98 -29.02 49.43 C-28.05 49.38 -27.09 49.34 -26.09 49.3 C-23.73 49.19 -21.36 49.1 -19 49 C-18.71 47.09 -18.71 47.09 -18.42 45.13 C-17.71 40.39 -16.97 35.64 -16.23 30.9 C-15.91 28.85 -15.6 26.8 -15.29 24.75 C-14.85 21.79 -14.39 18.84 -13.92 15.89 C-13.79 14.98 -13.66 14.06 -13.52 13.12 C-12.7 8.05 -11.83 4.71 -8 1 C-5.15 -0.43 -3.17 -0.31 0 0 Z " fill="#B2DDFD" transform="translate(543,196)"/>
<path d="M0 0 C0.95 0.16 1.9 0.31 2.88 0.47 C28.49 4.82 52.52 12.06 71 31 C71.74 31.73 72.48 32.46 73.24 33.21 C89.21 49.89 95.53 72.9 95.35 95.46 C94.85 116.69 87.19 135.9 71.67 150.71 C52.49 167.14 27.63 171.4 3.12 171.44 C2.44 171.44 1.76 171.44 1.05 171.44 C-24.7 171.4 -52.37 168.74 -77 161 C-78.07 160.67 -78.07 160.67 -79.16 160.33 C-100.74 153.36 -118.59 141.43 -129.31 120.94 C-137.89 102.95 -138.95 79.72 -132.96 60.71 C-124.12 36.41 -107.7 19.11 -84.75 7.75 C-58.41 -3.79 -28.07 -4.64 0 0 Z " fill="#B3DDFD" transform="translate(516,624)"/>
<path d="M0 0 C1.68 0.32 1.68 0.32 3.4 0.66 C22.14 4.55 41.42 11.28 56 24 C56.65 24.5 57.3 24.99 57.96 25.5 C75.05 39.04 83.85 61.82 86.74 82.75 C89.02 102.5 85.86 124.21 73.94 140.56 C72.97 141.72 71.99 142.87 71 144 C70.33 144.88 70.33 144.88 69.64 145.78 C61.42 156.28 47.6 163.24 35 167 C31.62 166.55 28.66 165.58 25.52 164.29 C14.45 159.86 3.73 156.13 -8 154 C-8.95 153.82 -9.9 153.64 -10.88 153.45 C-39.29 148.21 -69.91 146.84 -97.87 155.13 C-103.79 156.77 -108.01 155.19 -113.31 152.5 C-119.28 149.08 -124.15 144.84 -129 140 C-129.86 139.15 -129.86 139.15 -130.75 138.29 C-144.33 123.82 -145.64 104.44 -145.13 85.73 C-144 61.54 -131.42 39.35 -114 23 C-83.87 -4.3 -38.34 -8.27 0 0 Z " fill="#FBFDFD" transform="translate(538,461)"/>
<path d="M0 0 C2.88 1.31 2.88 1.31 5 4 C6.51 13.68 3.68 24.17 2 33.69 C1.71 35.37 1.42 37.06 1.13 38.74 C0.43 42.83 -0.28 46.91 -1 51 C-0.17 51.12 0.66 51.23 1.51 51.35 C35.36 56.27 67.53 72.9 88.85 100.07 C110.34 129.37 121.31 163.84 115.97 200.27 C111.95 224.15 100.31 247.55 80.5 262.12 C72.89 267.53 64.53 271.3 56 275 C55.78 277.06 55.78 277.06 57.22 278.37 C58.07 279.15 58.07 279.15 58.93 279.95 C76.42 296.52 86.67 314.49 92 338 C92.17 338.74 92.35 339.48 92.53 340.25 C95.69 358.63 94.38 379.9 87 397 C86.74 397.65 86.48 398.3 86.21 398.96 C77.97 419.06 62.26 431.14 43 440 C43.72 440.71 44.43 441.43 45.17 442.16 C67.78 464.81 80.24 490.44 80.32 522.93 C79.99 546.15 71.47 568.51 55 585 C54.31 585.7 53.63 586.4 52.92 587.12 C34.73 604.46 8.55 611.24 -15.97 611.1 C-16.89 611.1 -17.81 611.09 -18.76 611.09 C-21.67 611.09 -24.59 611.08 -27.5 611.06 C-29.49 611.06 -31.47 611.05 -33.46 611.05 C-38.31 611.04 -43.15 611.02 -48 611 C-48.08 611.57 -48.16 612.13 -48.24 612.71 C-48.72 616.06 -49.2 619.41 -49.69 622.76 C-50.5 628.32 -51.24 633.88 -51.91 639.45 C-52.07 640.71 -52.23 641.96 -52.4 643.25 C-52.71 645.72 -53.01 648.19 -53.29 650.67 C-54.54 660.2 -54.54 660.2 -57.35 663.28 C-61.32 665.85 -64.43 665.95 -69 665 C-71.5 663.12 -72.62 661.76 -74 659 C-73.94 647.62 -71.77 636.32 -69.94 625.12 C-69.65 623.36 -69.37 621.59 -69.08 619.82 C-68.4 615.55 -67.7 611.27 -67 607 C-67.71 607.01 -68.41 607.03 -69.14 607.04 C-77.73 607.14 -85.66 605.87 -94 604 C-94.75 603.83 -95.51 603.67 -96.28 603.5 C-118.03 598.58 -136.93 589.79 -153 574 C-153.63 573.39 -154.25 572.78 -154.89 572.14 C-171.29 554.79 -175.72 531.13 -175.3 508.08 C-174.55 488.24 -166.82 469.18 -154 454 C-153.18 453.02 -152.36 452.04 -151.51 451.02 C-143.98 442.29 -135.17 434.55 -125 429 C-124.34 429 -123.68 429 -123 429 C-123 428.34 -123 427.68 -123 427 C-124.08 426.61 -124.08 426.61 -125.17 426.22 C-140.56 419.59 -150.6 405.1 -157.25 390.31 C-166.14 366.24 -163.45 338.06 -153 315 C-142.74 293.41 -126.81 275.78 -106 264 C-105.34 264 -104.68 264 -104 264 C-104 263.34 -104 262.68 -104 262 C-104.57 261.89 -105.13 261.77 -105.71 261.66 C-122.08 256.96 -135.2 240.71 -143.18 226.55 C-146.87 219.68 -149.71 212.44 -152 205 C-152.27 204.14 -152.54 203.27 -152.82 202.39 C-155.18 194.05 -155.52 186 -155.44 177.38 C-155.43 176.67 -155.43 175.97 -155.43 175.24 C-155.36 164.12 -154.6 153.59 -151 143 C-150.78 142.35 -150.56 141.71 -150.33 141.04 C-148.77 136.59 -146.94 132.3 -145 128 C-144.49 126.84 -143.97 125.68 -143.45 124.48 C-128.89 93.42 -100.44 69.2 -68.51 57.27 C-55.5 52.65 -42.81 49.98 -29.02 49.43 C-28.05 49.38 -27.09 49.34 -26.09 49.3 C-23.73 49.19 -21.36 49.1 -19 49 C-18.71 47.09 -18.71 47.09 -18.42 45.13 C-17.71 40.39 -16.97 35.64 -16.23 30.9 C-15.91 28.85 -15.6 26.8 -15.29 24.75 C-14.85 21.79 -14.39 18.84 -13.92 15.89 C-13.79 14.98 -13.66 14.06 -13.52 13.12 C-12.7 8.05 -11.83 4.71 -8 1 C-5.15 -0.43 -3.17 -0.31 0 0 Z M-57 66 C-57.65 66.2 -58.31 66.41 -58.98 66.62 C-90.41 76.52 -116.4 98.67 -131.86 127.66 C-144.97 153.45 -147.55 180.33 -138.69 207.81 C-134.87 218.62 -129.54 227.39 -122 236 C-121.17 236.96 -121.17 236.96 -120.32 237.93 C-112.38 246.46 -98.95 255.41 -87.2 256.28 C-82.52 256.12 -78.05 255.12 -73.5 254.06 C-71.89 253.7 -70.27 253.33 -68.66 252.97 C-67.95 252.81 -67.25 252.65 -66.53 252.48 C-57.4 250.74 -48.26 250.72 -39 250.69 C-38.2 250.68 -37.4 250.68 -36.58 250.68 C-16.01 250.67 3.6 253.58 22.94 260.84 C24.25 261.33 24.25 261.33 25.6 261.82 C27.31 262.46 29.02 263.12 30.72 263.8 C41.1 267.69 49.51 264.95 59.32 260.73 C78.51 251.95 91.88 236.6 99.27 217.05 C109.26 188.87 106.89 157.91 94.3 130.97 C85.08 112.06 71.38 95.86 54 84 C53.43 83.61 52.87 83.23 52.29 82.83 C30.23 68.06 5.21 61.56 -21.12 61.62 C-22.29 61.63 -22.29 61.63 -23.47 61.63 C-35.12 61.66 -45.87 62.31 -57 66 Z M-126 294.94 C-145.04 316.59 -151.44 341.72 -150 370 C-148.72 385.58 -140.78 399.1 -129.66 409.82 C-122.86 415.4 -114.96 420.58 -106 421 C-103.21 420.61 -100.53 419.93 -97.81 419.19 C-85.31 415.9 -73.22 414.56 -60.31 414.56 C-59.54 414.56 -58.76 414.56 -57.97 414.56 C-46.21 414.57 -34.75 415.44 -23.12 417.25 C-22.46 417.35 -21.79 417.45 -21.1 417.56 C-6.82 419.81 6.46 423.91 19.78 429.44 C20.65 429.79 21.52 430.13 22.41 430.49 C23.17 430.8 23.94 431.12 24.73 431.44 C32.33 433.31 43.45 427.09 49.96 423.26 C52.38 421.58 54.7 419.84 57 418 C57.62 417.54 58.24 417.08 58.88 416.61 C67.61 409.8 72.94 400.11 77 390 C77.34 389.24 77.68 388.48 78.03 387.7 C86 365.53 82.79 339.52 73.62 318.32 C61.28 293.08 41.43 279.32 15.74 270.24 C10.54 268.52 5.35 267.14 0 266 C-1.86 265.6 -1.86 265.6 -3.76 265.19 C-47.24 256.1 -93.97 261.95 -126 294.94 Z M-135 451 C-135.91 451.82 -136.83 452.64 -137.77 453.49 C-153.54 468.38 -162.54 488.4 -163.2 509.98 C-163.49 529.48 -160.33 546.27 -148 562 C-147.23 562.98 -146.47 563.97 -145.68 564.98 C-143.05 568.11 -140.02 570.54 -136.69 572.88 C-136.08 573.3 -135.47 573.73 -134.84 574.17 C-115.53 587.35 -94.14 592.45 -71.22 595.56 C-69.1 595.85 -66.99 596.15 -64.88 596.46 C-34.66 600.88 -1.44 602.73 27 590 C27.99 589.56 28.99 589.12 30.01 588.66 C46.78 580.39 58.55 564.77 64.75 547.44 C67.38 538.61 68.37 529.88 68.31 520.69 C68.31 519.68 68.3 518.68 68.3 517.65 C67.9 492.35 56.53 470.73 38.62 453.31 C-3.09 416.46 -93.53 412.8 -135 451 Z " fill="#0C3366" transform="translate(543,196)"/>
<path d="M0 0 C0.74 0 1.49 0.01 2.26 0.02 C9.42 0.24 15.09 2.07 20.36 7.1 C24.18 11.48 25.06 14.48 24.96 20.12 C24.42 24.82 22.53 27.99 18.89 30.97 C10.66 36.45 2.39 37.28 -7.31 36.5 C-10.49 35.82 -13.35 34.83 -16.31 33.5 C-17.24 33.11 -18.17 32.72 -19.12 32.31 C-23.4 28.77 -25.1 24.3 -25.75 18.88 C-24.92 12.46 -22.16 8.99 -17.42 4.89 C-11.7 1.11 -6.74 -0.06 0 0 Z " fill="#F6ACC5" transform="translate(446.3125,354.5)"/>
<path d="M0 0 C4.52 3.08 8.97 6.81 11 12 C11.6 17.31 11.24 20.93 8.34 25.46 C5.14 29.13 0.74 31.11 -4 32 C-15.25 32.74 -25.34 32.11 -34.3 24.73 C-37.77 21.2 -39.83 17.65 -40.15 12.66 C-39.92 9.06 -39.24 6.46 -37.56 3.25 C-26.55 -6.42 -12.86 -6.28 0 0 Z " fill="#F5ADC5" transform="translate(616,372)"/>
<path d="M0 0 C2.44 1.19 2.44 1.19 4 3 C4.56 5.38 4.56 5.38 4 8 C0.48 11.89 -3.45 15.01 -7.62 18.12 C-11.87 21.26 -11.87 21.26 -15.77 24.8 C-17 26 -17 26 -19 26 C-19 26.66 -19 27.32 -19 28 C-20.61 29.59 -20.61 29.59 -22.75 31.38 C-25.07 33.33 -27.16 35.17 -29.19 37.44 C-31 39 -31 39 -33.75 39.25 C-34.49 39.17 -35.24 39.08 -36 39 C-37.47 36.05 -37.36 34.31 -37 31 C-31.97 18.18 -14.79 -1.61 0 0 Z " fill="#F8FCFE" transform="translate(465,283)"/>
<path d="M0 0 C3.92 0.7 5.22 2.77 7.68 5.77 C8.81 7.5 8.81 7.5 8.81 9.5 C10.14 10.19 11.47 10.85 12.81 11.5 C13.78 12.04 14.75 12.57 15.75 13.12 C22.22 15.86 29.94 15.31 36.56 13.44 C40.25 11.24 43.39 8.68 46.6 5.83 C48.81 4.5 48.81 4.5 51.59 4.8 C52.69 5.14 52.69 5.14 53.81 5.5 C54.03 8.3 54.07 10.04 52.7 12.53 C46.8 19.41 39.85 24.07 30.68 25.08 C21.31 25.65 13.56 24.17 5.81 18.5 C1.46 14.5 -2.95 9.94 -3.38 3.81 C-3.13 0.76 -2.96 0.68 0 0 Z " fill="#0C386D" transform="translate(499.1875,368.5)"/>
<path d="M0 0 C2 2 2 2 2.34 4.77 C1.34 14.27 -8.76 24.13 -15 31 C-18 33 -18 33 -20.12 32.75 C-22 32 -22 32 -23 30 C-23.75 20.71 -18.62 11.81 -12.81 4.75 C-8.65 0.68 -5.86 -0.51 0 0 Z " fill="#F7FCFE" transform="translate(422,657)"/>
<path d="M0 0 C2.61 1.88 4.02 3.38 6 6 C5.88 8.88 5.88 8.88 5 11 C2.81 11.75 2.81 11.75 0 12 C-2.56 10.19 -2.56 10.19 -5 8 C-8.66 5.58 -12.06 5.7 -16.38 5.69 C-17.66 5.67 -18.95 5.65 -20.27 5.64 C-24.21 6.02 -26.56 7.14 -30 9 C-32.88 8.69 -32.88 8.69 -35 8 C-35.81 6.31 -35.81 6.31 -36 4 C-27.43 -6.98 -11.31 -6.72 0 0 Z " fill="#0C386D" transform="translate(591,345)"/>
<path d="M0 0 C2.76 1.58 5.17 3.2 7.19 5.69 C6.88 8.38 6.88 8.38 6.19 10.69 C2.26 10.28 -0.95 9.71 -4.56 8.12 C-10.29 5.89 -16.53 5.47 -22.34 7.62 C-23.86 8.35 -25.37 9.1 -26.86 9.86 C-29.46 10.96 -31.21 10.69 -33.81 9.69 C-34.12 7.44 -34.12 7.44 -33.81 4.69 C-25.33 -4.05 -10.66 -5.19 0 0 Z " fill="#0C376E" transform="translate(486.8125,336.3125)"/>
<path d="M0 0 C0.99 0.33 1.98 0.66 3 1 C-0.43 3.83 -3.94 6.3 -7.69 8.69 C-14.81 13.39 -21.01 18.88 -26.94 25 C-29 27 -29 27 -32 28 C-33.1 29.86 -33.1 29.86 -34 32 C-35.58 34.59 -37.26 37.1 -38.94 39.62 C-39.6 40.65 -39.6 40.65 -40.28 41.69 C-40.93 42.67 -40.93 42.67 -41.59 43.66 C-41.98 44.26 -42.37 44.85 -42.77 45.46 C-44 47 -44 47 -47 49 C-45.01 34.34 -27.07 18.69 -16 10 C-10.88 6.41 -5.59 2.8 0 0 Z " fill="#C0E3F7" transform="translate(461,273)"/>
<path d="M0 0 C1.28 -0 1.28 -0 2.59 -0.01 C4.38 -0.02 6.17 -0.02 7.96 -0.02 C10.68 -0.02 13.4 -0.04 16.12 -0.06 C17.87 -0.06 19.62 -0.06 21.38 -0.06 C22.18 -0.07 22.98 -0.08 23.8 -0.08 C29.32 -0.06 34.35 0.77 39.69 2.17 C39.69 2.5 39.69 2.83 39.69 3.17 C38.42 3.15 37.16 3.14 35.86 3.12 C31.07 3.07 26.29 3.03 21.51 3 C19.45 2.99 17.4 2.97 15.35 2.94 C3.16 2.79 -8.41 3.26 -20.4 5.52 C-23.83 6.09 -26.85 6.46 -30.31 6.17 C-30.97 5.51 -31.63 4.85 -32.31 4.17 C-30.17 3.68 -28.02 3.21 -25.88 2.73 C-24.68 2.46 -23.49 2.2 -22.25 1.92 C-14.88 0.42 -7.51 0.01 0 0 Z " fill="#C2E7FC" transform="translate(492.3125,443.83203125)"/>
<path d="M0 0 C0.33 0 0.66 0 1 0 C1.38 3.32 1.16 4.75 -0.65 7.61 C-7.74 15.99 -14.7 22.9 -24.19 28.44 C-24.77 28.78 -25.35 29.12 -25.95 29.48 C-29.62 31.52 -32.83 32.55 -37 33 C-36.01 32.5 -36.01 32.5 -35 32 C-35 31.34 -35 30.68 -35 30 C-34.26 29.67 -33.52 29.34 -32.76 29 C-18.91 22.51 -8.23 12.85 0 0 Z " fill="#BFE2F8" transform="translate(633,425)"/>
<path d="M0 0 C0.42 0.37 0.83 0.74 1.26 1.11 C5.56 4.86 10 8.3 14.62 11.62 C18.83 14.66 22.98 17.72 27 21 C25.32 21.68 25.32 21.68 23 22 C14.79 18.13 3.72 10.96 -1 3 C-0.67 2.01 -0.34 1.02 0 0 Z " fill="#C6E6F8" transform="translate(396,755)"/>
<path d="M0 0 C12.65 3.33 23.18 12.84 31 23 C29.68 23 28.36 23 27 23 C25.65 21.01 24.32 19.01 23 17 C20.31 14.95 20.31 14.95 17 13 C14.41 11.18 11.84 9.33 9.27 7.49 C6.99 5.85 6.99 5.85 4 5 C4 4.34 4 3.68 4 3 C2.68 3 1.36 3 0 3 C0 2.01 0 1.02 0 0 Z " fill="#C0E1F6" transform="translate(560,637)"/>
<path d="M0 0 C1.78 -0.02 1.78 -0.02 3.6 -0.04 C9.95 -0.05 15.49 0.28 21.56 2.19 C21.56 2.85 21.56 3.51 21.56 4.19 C7.7 3.53 -6.16 2.87 -20.44 2.19 C-20.44 1.86 -20.44 1.53 -20.44 1.19 C-13.65 -0.06 -6.89 0 0 0 Z " fill="#C5E5F9" transform="translate(525.4375,257.8125)"/>
<path d="M0 0 C-4.32 9.5 -14.69 15.98 -24 20 C-27.25 20.12 -27.25 20.12 -30 20 C-27 18 -27 18 -24.72 16.88 C-17.52 13.31 -12.15 8.82 -6.43 3.29 C-2.94 0 -2.94 0 0 0 Z " fill="#C2E3F9" transform="translate(594,766)"/>
<path d="M0 0 C6.61 5.83 12.98 15.34 15 24 C14.09 26.26 14.09 26.26 13 28 C12.35 26.41 12.35 26.41 11.68 24.78 C7.46 14.55 7.46 14.55 1.07 5.58 C0 4 0 4 0 0 Z " fill="#C0E1F7" transform="translate(591,661)"/>
<path d="M0 0 C2.27 3.41 2.9 6.49 3.62 10.44 C3.76 11.15 3.89 11.85 4.02 12.58 C5.07 18.66 5.82 24.85 5 31 C4.34 31.66 3.68 32.32 3 33 C2.94 32.07 2.88 31.15 2.82 30.19 C2.73 28.99 2.65 27.8 2.56 26.56 C2.48 25.37 2.4 24.17 2.32 22.94 C2.32 20.11 2.32 20.11 1 19 C0.57 16.19 0.2 13.39 -0.12 10.56 C-0.22 9.77 -0.32 8.98 -0.43 8.17 C-1.12 2.25 -1.12 2.25 0 0 Z " fill="#B4D7EF" transform="translate(643,345)"/>
<path d="M0 0 C0 0.66 0 1.32 0 2 C-3.57 3.19 -6.8 3.12 -10.51 3.1 C-11.24 3.1 -11.97 3.09 -12.72 3.09 C-15.04 3.09 -17.36 3.08 -19.69 3.06 C-21.26 3.06 -22.84 3.05 -24.42 3.05 C-28.28 3.04 -32.14 3.02 -36 3 C-36 2.34 -36 1.68 -36 1 C-31.52 0.86 -27.03 0.71 -22.55 0.57 C-21.02 0.52 -19.5 0.48 -17.97 0.43 C-15.78 0.36 -13.58 0.29 -11.39 0.22 C-10.71 0.2 -10.03 0.18 -9.33 0.15 C-6.22 0.06 -3.12 0 0 0 Z " fill="#B5D7EE" transform="translate(537,792)"/>
<path d="M0 0 C0.66 0.33 1.32 0.66 2 1 C1.67 1.99 1.34 2.98 1 4 C0.34 4 -0.32 4 -1 4 C-1 4.66 -1 5.32 -1 6 C-2.62 7.71 -4.3 9.37 -6 11 C-7.14 12.14 -7.14 12.14 -8.31 13.31 C-8.87 13.87 -9.43 14.43 -10 15 C-10.99 14.67 -11.98 14.34 -13 14 C-8.71 9.38 -4.42 4.76 0 0 Z " fill="#193C69" transform="translate(400,638)"/>
<path d="M0 0 C0 4.02 -1.29 5.08 -4 8 C-9.19 12 -9.19 12 -14 12 C-14 11.34 -14 10.68 -14 10 C-12.21 8.63 -12.21 8.63 -9.81 7.12 C-6.38 4.91 -3.14 2.63 0 0 Z " fill="#BFE3FA" transform="translate(553,380)"/>
<path d="M0 0 C0.82 0.2 0.82 0.2 1.65 0.4 C6.49 1.54 11.19 2.31 16.15 2.66 C18 3 18 3 20 5 C12.37 5.35 6.08 5 -1 2 C-0.67 1.34 -0.34 0.68 0 0 Z " fill="#C2E6FD" transform="translate(512,391)"/>
<path d="M0 0 C0.68 0.7 1.36 1.4 2.06 2.12 C4.73 4.81 7.6 7.2 10.55 9.57 C12 11 12 11 13 14 C8.58 11.96 4.45 9.45 1 6 C0.6 4.01 0.26 2.01 0 0 Z " fill="#BFE2FA" transform="translate(497,378)"/>
<path d="M0 0 C0.66 0 1.32 0 2 0 C4.03 3.73 5 5.67 5 10 C5.99 10.33 6.98 10.66 8 11 C8.69 13.06 8.69 13.06 9 15 C8.01 15 7.02 15 6 15 C4.99 13.07 3.99 11.13 3 9.19 C2.44 8.11 1.89 7.03 1.31 5.92 C0 3 0 3 0 0 Z " fill="#C0E5F7" transform="translate(385,738)"/>
<path d="M0 0 C6.48 0.28 11.07 2.79 16 7 C16 7.66 16 8.32 16 9 C10.09 7.45 5.02 4.4 0 1 C0 0.67 0 0.34 0 0 Z " fill="#C3E4FA" transform="translate(582,274)"/>
<path d="M0 0 C0 0.33 0 0.66 0 1 C-1.39 1.19 -1.39 1.19 -2.81 1.38 C-6.14 1.82 -6.14 1.82 -9 4 C-12.36 4.2 -12.36 4.2 -16.19 4.12 C-17.46 4.11 -18.73 4.09 -20.04 4.07 C-21.51 4.04 -21.51 4.04 -23 4 C-16.05 0.14 -7.8 -0.29 0 0 Z " fill="#ADD3ED" transform="translate(512,258)"/>
<path d="M0 0 C-0.33 0.99 -0.66 1.98 -1 3 C-5.43 4.65 -9.29 5.23 -14 5 C-14.33 4.01 -14.66 3.02 -15 2 C-13.76 1.86 -12.52 1.71 -11.25 1.56 C-7.44 1.09 -3.83 0 0 0 Z " fill="#C1E3FA" transform="translate(595,457)"/>
<path d="M0 0 C0.89 0.31 0.89 0.31 1.79 0.62 C5.84 2 9.77 3.32 14 4 C13.01 4.99 12.02 5.98 11 7 C9.56 6.57 8.12 6.13 6.69 5.69 C5.89 5.44 5.09 5.2 4.26 4.95 C1.9 3.96 0.66 2.92 -1 1 C-0.67 0.67 -0.34 0.34 0 0 Z " fill="#C0E4F9" transform="translate(441,444)"/>
<path d="M0 0 C4.01 3.68 6.45 7.19 9 12 C8.34 12.66 7.68 13.32 7 14 C5.82 12.43 4.66 10.84 3.5 9.25 C2.85 8.37 2.2 7.49 1.53 6.58 C0 4 0 4 0 0 Z " fill="#C0E2FA" transform="translate(622,305)"/>
<path d="M0 0 C0.99 0.66 1.98 1.32 3 2 C1.57 3.34 0.13 4.67 -1.31 6 C-2.11 6.74 -2.91 7.49 -3.74 8.25 C-6 10 -6 10 -9 10 C-7.85 6.55 -6.68 5.62 -3.94 3.31 C-2.84 2.38 -2.84 2.38 -1.71 1.43 C-1.15 0.96 -0.58 0.48 0 0 Z " fill="#C0E3FA" transform="translate(544,372)"/>
<path d="M0 0 C2.04 2.57 3.58 4.93 4.75 8 C5.01 8.66 5.28 9.32 5.55 10 C6.08 12.33 5.74 13.75 5 16 C4.34 15.01 3.68 14.02 3 13 C2.34 12.34 1.68 11.68 1 11 C0.59 8.4 0.59 8.4 0.38 5.38 C0.3 4.37 0.23 3.37 0.15 2.34 C0.1 1.57 0.05 0.79 0 0 Z " fill="#B5D7EF" transform="translate(637,329)"/>
<path d="M0 0 C0.99 0.33 1.98 0.66 3 1 C-0.96 4.96 -4.92 8.92 -9 13 C-9.33 12.01 -9.66 11.02 -10 10 C-6.7 6.7 -3.4 3.4 0 0 Z " fill="#1A3B69" transform="translate(430,280)"/>
<path d="M0 0 C-2.7 2.76 -3.95 3 -7.89 3.07 C-9.35 2.96 -10.8 2.83 -12.25 2.69 C-13 2.63 -13.74 2.57 -14.51 2.5 C-16.34 2.35 -18.17 2.18 -20 2 C-20 1.67 -20 1.34 -20 1 C-19.08 0.94 -18.17 0.88 -17.23 0.82 C-15.44 0.69 -15.44 0.69 -13.62 0.56 C-12.44 0.48 -11.26 0.4 -10.04 0.32 C-2.14 -0.51 -2.14 -0.51 0 0 Z " fill="#ACD4EF" transform="translate(541,392)"/>
<path d="M0 0 C0.76 0.11 1.52 0.21 2.3 0.32 C3.49 0.49 3.49 0.49 4.71 0.65 C7.5 1.08 10.28 1.51 13.05 2.01 C13.05 2.34 13.05 2.67 13.05 3.01 C6.77 4.09 2.14 3.9 -3.95 2.01 C-1.95 0.01 -1.95 0.01 0 0 Z " fill="#B2D8F0" transform="translate(445.953125,783.98828125)"/>
<path d="M0 0 C2 1 2 1 3.19 3.88 C4.54 8.9 3.68 13.91 3 19 C2.67 19 2.34 19 2 19 C1.34 12.73 0.68 6.46 0 0 Z " fill="#B6D6ED" transform="translate(606,690)"/>
<path d="M0 0 C0.66 0.33 1.32 0.66 2 1 C-3.75 6 -3.75 6 -6 6 C-6.43 6.93 -6.43 6.93 -6.88 7.88 C-8 10 -8 10 -10 12 C-10.33 11.01 -10.66 10.02 -11 9 C-9.74 7.68 -8.46 6.37 -7.19 5.06 C-6.48 4.33 -5.77 3.6 -5.04 2.85 C-3 1 -3 1 0 0 Z " fill="#C5E8FC" transform="translate(412,645)"/>
<path d="M0 0 C1.71 1.28 3.37 2.62 5 4 C5 4.66 5 5.32 5 6 C5.96 6.43 5.96 6.43 6.94 6.88 C9 8 9 8 10 10 C9.01 10.33 8.02 10.66 7 11 C5.82 9.93 4.66 8.84 3.5 7.75 C2.85 7.15 2.2 6.54 1.53 5.92 C0 4 0 4 0 0 Z " fill="#BBE1F8" transform="translate(419,426)"/>
<path d="M0 0 C0.75 0.1 1.49 0.21 2.26 0.32 C4.09 0.57 5.92 0.85 7.75 1.12 C7.75 1.46 7.75 1.78 7.75 2.12 C-5.88 2.31 -5.88 2.31 -12.25 1.12 C-8.33 -1.66 -4.46 -0.69 0 0 Z " fill="#B6D9EF" transform="translate(480.25,789.875)"/>
<path d="M0 0 C-1 2 -1 2 -3.69 3.19 C-7.24 4.06 -9.48 3.84 -13 3 C-8.83 0.22 -4.94 -1.9 0 0 Z " fill="#B4D8F1" transform="translate(448,628)"/>
<path d="M0 0 C0.98 0.01 1.97 0.02 2.98 0.03 C4.11 0.04 4.11 0.04 5.25 0.06 C5.25 0.39 5.25 0.72 5.25 1.06 C3.19 1.57 1.13 2.07 -0.94 2.56 C-2.66 2.98 -2.66 2.98 -4.42 3.41 C-7.32 3.98 -9.81 4.2 -12.75 4.06 C-9.07 -0.17 -5.4 -0.06 0 0 Z " fill="#C4E8FD" transform="translate(571.75,338.9375)"/>
<path d="M0 0 C0.66 0 1.32 0 2 0 C0.72 4.99 -1.17 7.58 -5 11 C-5.33 10.01 -5.66 9.02 -6 8 C-4.86 5.96 -4.86 5.96 -3.19 3.81 C-2.37 2.74 -2.37 2.74 -1.54 1.64 C-1.03 1.1 -0.52 0.56 0 0 Z " fill="#BEE2F9" transform="translate(600,754)"/>
<path d="M0 0 C0.99 0.33 1.98 0.66 3 1 C2.05 2.51 1.09 4 0.12 5.5 C-0.41 6.34 -0.94 7.17 -1.49 8.03 C-1.99 8.68 -2.49 9.33 -3 10 C-3.66 10 -4.32 10 -5 10 C-4.5 5.6 -2.91 3.29 0 0 Z " fill="#C1E5FA" transform="translate(397,659)"/>
<path d="M0 0 C3.21 1.38 5.05 2.92 7.25 5.62 C8.03 6.57 8.03 6.57 8.83 7.54 C9.41 8.26 9.41 8.26 10 9 C9.01 9.33 8.02 9.66 7 10 C7 9.34 7 8.68 7 8 C6.01 7.67 5.02 7.34 4 7 C0 2.54 0 2.54 0 0 Z " fill="#B5D7EF" transform="translate(608,290)"/>
<path d="M0 0 C3.94 1.31 6.23 2.92 9 6 C8.67 6.99 8.34 7.98 8 9 C6.66 8.07 5.33 7.13 4 6.19 C3.26 5.67 2.51 5.14 1.75 4.61 C1.17 4.08 0.6 3.55 0 3 C0 2.01 0 1.02 0 0 Z " fill="#C1E2F9" transform="translate(599,283)"/>
<path d="M0 0 C1.63 0.15 1.63 0.15 3.29 0.31 C4.54 0.43 4.54 0.43 5.81 0.56 C5.81 0.89 5.81 1.22 5.81 1.56 C0.53 2.22 -4.75 2.88 -10.19 3.56 C-9.86 2.57 -9.53 1.58 -9.19 0.56 C-5.76 -0.58 -3.58 -0.35 0 0 Z " fill="#BFE4FD" transform="translate(466.1875,624.4375)"/>
<path d="M0 0 C2.43 3.64 2.08 4.93 1.62 9.19 C1.51 10.27 1.4 11.36 1.29 12.48 C1.19 13.31 1.1 14.14 1 15 C0.34 14.67 -0.32 14.34 -1 14 C-0.67 9.38 -0.34 4.76 0 0 Z " fill="#304E76" transform="translate(470,841)"/>
<path d="M0 0 C0.33 0.66 0.66 1.32 1 2 C-2.49 6 -4.65 7.63 -10 8 C-6.89 4.71 -3.98 2.16 0 0 Z " fill="#BDDFF4" transform="translate(420,638)"/>
<path d="M0 0 C0.33 0.66 0.66 1.32 1 2 C2.77 4.17 2.77 4.17 4.98 4.27 C6.99 4.25 9 4.13 11 4 C11 4.66 11 5.32 11 6 C8.81 7.19 8.81 7.19 6 8 C3.25 6.94 3.25 6.94 1 5 C0.19 2.31 0.19 2.31 0 0 Z " fill="#C0E2FC" transform="translate(451,342)"/>
<path d="M0 0 C-8.43 3.43 -8.43 3.43 -13 3 C-12.34 2.67 -11.68 2.34 -11 2 C-11 1.34 -11 0.68 -11 0 C-3.38 -1.12 -3.38 -1.12 0 0 Z " fill="#C5E4F9" transform="translate(564,788)"/>
<path d="M0 0 C1.14 3.41 0.87 4 -0.44 7.19 C-0.72 7.9 -1.01 8.62 -1.31 9.36 C-1.65 10.17 -1.65 10.17 -2 11 C-2.66 11 -3.32 11 -4 11 C-3.49 6.61 -2.48 3.66 0 0 Z " fill="#C5E6F9" transform="translate(390,670)"/>
<path d="M0 0 C4.43 1.21 6.98 2.52 10 6 C7 6 7 6 4 5 C4 4.34 4 3.68 4 3 C2.68 3 1.36 3 0 3 C0 2.01 0 1.02 0 0 Z " fill="#C5E6FB" transform="translate(560,637)"/>
<path d="M0 0 C3.5 0.12 3.5 0.12 7 1 C7.66 2.32 8.32 3.64 9 5 C5.37 4.01 1.74 3.02 -2 2 C-1.34 1.34 -0.68 0.68 0 0 Z " fill="#AFD6EF" transform="translate(563,453)"/>
<path d="M0 0 C1.12 1.5 1.12 1.5 2 4 C1.58 6.78 0.81 9.3 0 12 C-0.66 12 -1.32 12 -2 12 C-1.86 10.56 -1.71 9.12 -1.56 7.69 C-1.48 6.89 -1.4 6.09 -1.32 5.26 C-1 3 -1 3 0 0 Z " fill="#B1D8ED" transform="translate(403,344)"/>
<path d="M0 0 C3.96 0.99 3.96 0.99 8 2 C7.01 3.49 7.01 3.49 6 5 C3.36 4.34 0.72 3.68 -2 3 C-1.34 2.01 -0.68 1.02 0 0 Z " fill="#BCE4FC" transform="translate(552,261)"/>
<path d="M0 0 C2.62 2.37 4.42 4.84 6 8 C5.67 8.99 5.34 9.98 5 11 C1.19 8.23 0.93 4.37 0 0 Z " fill="#BFE6FB" transform="translate(410,412)"/>
<path d="M0 0 C0 3 0 3 -1.75 4.82 C-2.49 5.44 -3.24 6.05 -4 6.69 C-4.74 7.31 -5.49 7.93 -6.25 8.57 C-6.83 9.04 -7.4 9.52 -8 10 C-8.66 9.67 -9.32 9.34 -10 9 C-8.9 7.87 -7.79 6.75 -6.69 5.62 C-6.07 5 -5.46 4.37 -4.82 3.73 C-3 2 -3 2 0 0 Z " fill="#ACD6F6" transform="translate(449,287)"/>
<path d="M0 0 C6.62 -0.25 6.62 -0.25 10 2 C9.67 2.33 9.34 2.66 9 3 C7.19 2.95 7.19 2.95 5 2.69 C4.28 2.61 3.56 2.53 2.81 2.45 C1.92 2.23 1.92 2.23 1 2 C0.67 1.34 0.34 0.68 0 0 Z " fill="#BCE1F6" transform="translate(435,782)"/>
<path d="M0 0 C6.75 0.75 6.75 0.75 9 3 C6.09 3.81 4.54 4.22 1.69 3.06 C1.13 2.71 0.57 2.36 0 2 C0 1.34 0 0.68 0 0 Z " fill="#B5DAF1" transform="translate(421,776)"/>
<path d="M0 0 C1.63 0.14 3.25 0.29 4.88 0.44 C5.78 0.52 6.68 0.6 7.62 0.68 C10 1 10 1 12 2 C12 2.66 12 3.32 12 4 C10.68 4 9.36 4 8 4 C8 3.34 8 2.68 8 2 C5.36 1.67 2.72 1.34 0 1 C0 0.67 0 0.34 0 0 Z " fill="#BEE7FF" transform="translate(541,447)"/>
<path d="M0 0 C0.33 0.99 0.66 1.98 1 3 C-1.97 5.48 -1.97 5.48 -5 8 C-5 5 -5 5 -2.5 2.31 C-1.67 1.55 -0.85 0.79 0 0 Z " fill="#284A73" transform="translate(634,445)"/>
<path d="M0 0 C0.33 0 0.66 0 1 0 C0.41 6.15 0.41 6.15 0 8 C-0.99 8.5 -0.99 8.5 -2 9 C-2.12 5.62 -2.12 5.62 -2 2 C-1.34 1.34 -0.68 0.68 0 0 Z " fill="#BEE3FA" transform="translate(643,403)"/>
<path d="M0 0 C0.33 0 0.66 0 1 0 C1.33 2.97 1.66 5.94 2 9 C1.34 9 0.68 9 0 9 C-1.37 6.27 -1.13 4.02 -1 1 C-0.67 0.67 -0.34 0.34 0 0 Z " fill="#C5EAFD" transform="translate(403,389)"/>
<path d="M0 0 C-4.62 4 -4.62 4 -8 4 C-8 3.34 -8 2.68 -8 2 C-3.61 -1.2 -3.61 -1.2 0 0 Z " fill="#143B6D" transform="translate(421,626)"/>
<path d="M0 0 C3.12 -0.19 3.12 -0.19 6 0 C6 0.66 6 1.32 6 2 C3.36 2.33 0.72 2.66 -2 3 C-1.34 2.01 -0.68 1.02 0 0 Z " fill="#C4E6FC" transform="translate(449,626)"/>
<path d="M0 0 C1 3 1 3 -0.44 6.19 C-1.21 7.58 -1.21 7.58 -2 9 C-2.97 5.98 -3.14 4 -2 1 C-1.34 0.67 -0.68 0.34 0 0 Z " fill="#1B4374" transform="translate(647,399)"/>
<path d="M0 0 C-0.66 1.32 -1.32 2.64 -2 4 C-3.98 4 -5.96 4 -8 4 C-2.78 0 -2.78 0 0 0 Z " fill="#BDDEF3" transform="translate(429,634)"/>
<path d="M0 0 C0.66 0.33 1.32 0.66 2 1 C-2.39 5 -2.39 5 -4 6 C-4.99 5.67 -5.98 5.34 -7 5 C-4.69 3.35 -2.38 1.7 0 0 Z " fill="#133A63" transform="translate(603,611)"/>
<path d="M0 0 C0.33 1.32 0.66 2.64 1 4 C-0.94 6.25 -0.94 6.25 -3 8 C-3.66 7.67 -4.32 7.34 -5 7 C-3.35 4.69 -1.7 2.38 0 0 Z " fill="#1D3E6B" transform="translate(404,488)"/>
</svg>
